# xmcd
#
# Track frame offsets:
#	150
#	19537
#	34064
#	46000
#	69788
#	86767
#	102639
#	113930
#	134954
#	151735
#	176750
#	195238
#	217914
#	234256
#	250226
#	269526
#	290845
#	307653
#
# Disc length: 4394 seconds
#
# Revision: 1
# Processed by: cddbd v1.5.2PL0 Copyright (c) Steve Scherf et al.
# Submitted via: audiograbber 1.83.01
#
DISCID=f4112812
DTITLE=Guy Penrod - The Best of Guy Penrod
DYEAR=2005
DGENRE=Gospel
TTITLE0=Good, Good News
TTITLE1=He's Watching Me
TTITLE2=Resurrection
TTITLE3=Yes, I Know
TTITLE4=I'm Gonna Sing
TTITLE5=On The Authority
TTITLE6=It Is Finished
TTITLE7=Knowing You'll Be There
TTITLE8=The Baptism Of Jesse Taylor
TTITLE9=Sinner Saved By Grace
TTITLE10=He Came Down to My Level
TTITLE11=The Old Rugged Cross Made The Difference
TTITLE12=Loving God, Loving Each Other
TTITLE13=Singing With The Saints
TTITLE14=Palms Of Victory
TTITLE15=Then Came The Morning
TTITLE16=I Believe In A Hill Called Mount Calvary
TTITLE17=At The Cross
EXTD=
EXTT0=
EXTT1=
EXTT2=
EXTT3=
EXTT4=
EXTT5=
EXTT6=
EXTT7=
EXTT8=
EXTT9=
EXTT10=
EXTT11=
EXTT12=
EXTT13=
EXTT14=
EXTT15=
EXTT16=
EXTT17=
PLAYORDER=
